<?xml version="1.0" encoding="UTF-8" standalone="no"?>
<!-- Created with Inkscape (http://www.inkscape.org/) -->
<svg
   xmlns:dc="http://purl.org/dc/elements/1.1/"
   xmlns:cc="http://web.resource.org/cc/"
   xmlns:rdf="http://www.w3.org/1999/02/22-rdf-syntax-ns#"
   xmlns:svg="http://www.w3.org/2000/svg"
   xmlns="http://www.w3.org/2000/svg"
   xmlns:sodipodi="http://sodipodi.sourceforge.net/DTD/sodipodi-0.dtd"
   xmlns:inkscape="http://www.inkscape.org/namespaces/inkscape"
   height="922.99896"
   width="278.47107"
   id="svg2"
   sodipodi:version="0.32"
   inkscape:version="0.45.1"
   sodipodi:docbase="D:\Documents and Settings\Joanna\My Documents\My Pictures\graph_vector\my_musical_instruments"
   sodipodi:docname="papapishu_cello_1_bw.svg"
   inkscape:output_extension="org.inkscape.output.svg.inkscape"
   version="1.0"
   inkscape:export-filename="D:\Documents and Settings\Joanna\My Documents\My Pictures\graph_vector\papapishu_cello_1_bw.png"
   inkscape:export-xdpi="19.391602"
   inkscape:export-ydpi="19.391602">
  <defs
     id="defs4">
    <linearGradient
       id="linearGradient4860">
      <stop
         style="stop-color:#343534;stop-opacity:1;"
         offset="0"
         id="stop4862" />
      <stop
         style="stop-color:#803300;stop-opacity:0;"
         offset="1"
         id="stop4864" />
    </linearGradient>
  </defs>
  <sodipodi:namedview
     id="base"
     pagecolor="#ffffff"
     bordercolor="#666666"
     borderopacity="1.0"
     inkscape:pageopacity="0.0"
     inkscape:pageshadow="2"
     inkscape:cx="297.0111"
     inkscape:cy="492.66782"
     inkscape:zoom="0.74594091"
     inkscape:document-units="px"
     inkscape:current-layer="layer4"
     inkscape:window-width="1280"
     inkscape:window-height="964"
     inkscape:window-x="0"
     inkscape:window-y="26" />
  <metadata
     id="metadata7">
    <rdf:RDF>
      <cc:Work
         rdf:about="">
        <dc:format>image/svg+xml</dc:format>
        <dc:type
           rdf:resource="http://purl.org/dc/dcmitype/StillImage" />
      </cc:Work>
    </rdf:RDF>
  </metadata>
  <g
     inkscape:groupmode="layer"
     inkscape:label="Warstwa 1"
     id="layer1"
     transform="translate(-227.54688,-58.141744)" />
  <g
     inkscape:groupmode="layer"
     id="layer3"
     inkscape:label="wyz"
     style="opacity:0.33333333"
     transform="translate(-227.54688,-58.141744)" />
  <g
     inkscape:groupmode="layer"
     id="layer4"
     inkscape:label="najwyz"
     transform="translate(-227.54688,-58.141744)">
    <path
       sodipodi:nodetypes="cssccsccsssssccscccscc"
       id="path4840"
       d="M 353.48212,320.91534 C 318.19237,324.18694 286.71388,333.83067 265.43658,371.34309 C 250.104,398.37482 253.16292,430.91582 259.40393,448.42694 C 265.13521,464.50785 263.63673,479.87734 255.84916,487.3377 C 258.10022,492.38272 256.26546,488.09215 258.29355,493.17853 C 289.85548,484.82527 289.22575,516.96048 289.05255,529.76954 C 288.52278,568.94793 270.32873,586.40456 244.61679,584.73368 L 241.30598,589.85906 C 259.13572,604.40449 233.01956,640.46055 229.24068,666.27262 C 223.92148,702.60604 236.80345,735.08866 259.40393,755.42177 C 287.05217,780.29623 325.72727,782.69623 368.66191,782.23355 C 417.46539,781.70762 441.51675,776.4426 463.84371,760.78413 C 499.32864,735.89763 510.75638,691.98535 503.39108,664.26173 C 491.27304,618.6484 477.5076,598.57289 491.99608,585.167 L 489.3149,579.80464 C 450.59801,592.07919 444.10959,546.37309 443.73488,526.85139 C 443.37868,508.29388 448.4639,488.81338 473.89813,489.3149 L 476.57931,483.95254 C 465.25087,473.61052 471.03471,461.12946 473.22784,449.09724 C 478.96106,424.24197 484.85862,394.68734 463.84372,363.96985 C 449.08085,342.39096 423.61575,324.27143 382.73809,321.07101 L 353.48212,320.91534 z "
       style="fill:#ffffff;fill-opacity:1;fill-rule:evenodd;stroke:#000000;stroke-width:1px;stroke-linecap:butt;stroke-linejoin:miter;stroke-opacity:1" />
    <path
       style="fill:#ffffff;fill-opacity:1;fill-rule:evenodd;stroke:#000000;stroke-width:1px;stroke-linecap:butt;stroke-linejoin:miter;stroke-opacity:1"
       d="M 353.48212,320.91534 C 318.19237,324.18694 286.71388,333.83067 265.43658,371.34309 C 250.104,398.37482 253.16292,430.91582 259.40393,448.42694 C 265.13521,464.50785 263.63673,479.87734 255.84916,487.3377 C 258.10022,492.38272 256.26546,488.09215 258.29355,493.17853 C 289.85548,484.82527 289.22575,516.96048 289.05255,529.76954 C 288.52278,568.94793 270.32873,586.40456 244.61679,584.73368 L 241.30598,589.85906 C 259.13572,604.40449 233.01956,640.46055 229.24068,666.27262 C 223.92148,702.60604 236.80345,735.08866 259.40393,755.42177 C 287.05217,780.29623 325.72727,782.69623 368.66191,782.23355 C 417.46539,781.70762 441.51675,776.4426 463.84371,760.78413 C 499.32864,735.89763 510.75638,691.98535 503.39108,664.26173 C 491.27304,618.6484 477.5076,598.57289 491.99608,585.167 L 489.3149,579.80464 C 450.59801,592.07919 444.10959,546.37309 443.73488,526.85139 C 443.37868,508.29388 448.4639,488.81338 473.89813,489.3149 L 476.57931,483.95254 C 465.25087,473.61052 471.03471,461.12946 473.22784,449.09724 C 478.96106,424.24197 484.85862,394.68734 463.84372,363.96985 C 449.08085,342.39096 423.61575,324.27143 382.73809,321.07101 L 353.48212,320.91534 z "
       id="path2844"
       sodipodi:nodetypes="cssccsccsssssccscccscc" />
    <path
       sodipodi:nodetypes="csscscssssscsccscc"
       id="path2846"
       d="M 354.07763,324.87131 C 320.36792,328.0912 290.29883,337.5825 269.9742,374.50201 C 255.32811,401.10648 258.25008,433.13316 264.21165,450.3675 C 269.68633,466.19423 268.25493,480.6505 260.81604,487.99295 C 285.15455,483.51415 292.92423,497.36231 292.53279,529.75412 C 292.23938,554.03378 288.19704,585.74733 246.924,589.56418 C 263.95545,603.87971 239.00859,639.36588 235.39892,664.76996 C 230.31788,700.52911 242.62308,732.49832 264.21165,752.51004 C 290.62198,776.99135 327.56546,779.35341 368.57776,778.89805 C 415.19613,778.38043 438.17063,773.19862 459.49793,757.78764 C 493.39407,733.2945 504.31017,690.07628 497.27463,662.79086 C 485.69916,617.89847 475.23123,599.14571 486.38981,584.94628 C 464.99253,595.90577 438.94577,567.61717 440.28945,527.55239 C 441.65673,486.78391 457.74722,487.8094 471.66332,485.33159 C 460.84209,475.15303 466.36697,462.86925 468.46191,451.0272 C 473.93843,426.56479 479.57194,397.47728 459.49794,367.24532 C 445.39605,346.00749 421.07112,328.17436 382.0237,325.02452 L 354.07763,324.87131 z "
       style="fill:#ffffff;fill-rule:evenodd;stroke:#000000;stroke-width:0.96960217px;stroke-linecap:butt;stroke-linejoin:miter;stroke-opacity:1;fill-opacity:1" />
    <path
       style="fill:#ffffff;fill-opacity:1;fill-rule:evenodd;stroke:#000000;stroke-width:1px;stroke-linecap:butt;stroke-linejoin:miter;stroke-opacity:1"
       d="M 355.25602,161.8761 C 350.50224,160.87964 350.60388,157.45546 350.79308,153.98751 L 355.71426,92.810515 C 352.61399,90.539353 352.65604,87.639729 352.63346,84.75303 C 345.03962,82.92855 346.68294,77.98282 347.53828,73.140773 C 351.197,72.770752 350.39485,72.832603 353.53873,72.713009 C 353.07307,70.697459 354.6127,65.421055 357.96562,64.964795 C 356.70377,57.910679 360.89623,58.943607 365.19366,58.684696 C 373.38852,58.190973 370.3682,62.044794 370.99979,65.557257 C 373.83175,66.433558 375.47346,69.225809 375.14703,73.259265 L 381.30863,73.851727 C 382.26546,84.612824 377.3596,84.359491 374.19908,84.634538 C 373.83012,88.083826 374.65247,92.36575 370.17034,93.52147 C 370.93466,97.761566 372.09275,102.39544 373.48813,107.26659 C 380.16303,125.43543 380.00324,145.50015 377.99084,161.77311 L 355.25602,161.8761 z "
       id="path2850"
       sodipodi:nodetypes="cccccccscccccccc" />
    <path
       style="fill:#ffffff;fill-opacity:1;fill-rule:evenodd;stroke:#000000;stroke-width:1px;stroke-linecap:butt;stroke-linejoin:miter;stroke-opacity:1"
       d="M 357.96562,65.557257 L 355.95125,87.241371 C 355.70733,90.645093 356.49543,93.016789 360.33547,92.336545 L 366.85255,92.455037 C 372.69714,92.991189 370.97822,89.523126 371.94773,87.478356 L 370.40732,65.201779 C 370.96484,61.288064 370.59758,58.078936 364.6012,59.158666 C 361.45884,59.275437 357.50309,57.62989 357.96562,65.557257 z "
       id="path2852"
       sodipodi:nodetypes="cccccccc" />
    <path
       sodipodi:nodetypes="ccccccccc"
       id="path4868"
       d="M 359.03205,109.75493 L 357.49165,140.32598 C 357.28744,143.61772 358.51255,144.05082 359.8615,144.23623 L 371.82923,144.11774 C 375.23621,143.90059 374.50859,142.02816 374.31757,139.02256 L 370.28883,109.63644 C 369.82751,108.26745 369.94856,106.60728 367.08954,106.43714 L 361.4019,106.43714 C 359.73643,106.84265 359.12174,108.08879 359.03205,109.75493 z "
       style="fill:#ffffff;fill-opacity:1;fill-rule:evenodd;stroke:#000000;stroke-width:1px;stroke-linecap:butt;stroke-linejoin:miter;stroke-opacity:1" />
    <path
       style="fill:#ffffff;fill-opacity:1;fill-rule:evenodd;stroke:#000000;stroke-width:1px;stroke-linecap:butt;stroke-linejoin:miter;stroke-opacity:1"
       d="M 359.03205,109.75493 L 357.49165,140.32598 C 357.28744,143.61772 358.51255,144.05082 359.8615,144.23623 L 371.82923,144.11774 C 375.23621,143.90059 374.50859,142.02816 374.31757,139.02256 L 370.28883,109.63644 C 369.82751,108.26745 369.94856,106.60728 367.08954,106.43714 L 361.4019,106.43714 C 359.73643,106.84265 359.12174,108.08879 359.03205,109.75493 z "
       id="path2854"
       sodipodi:nodetypes="ccccccccc" />
    <path
       style="fill:#ffffff;fill-opacity:1;fill-rule:evenodd;stroke:#000000;stroke-width:1px;stroke-linecap:butt;stroke-linejoin:miter;stroke-opacity:1"
       d="M 354.05537,113.54669 L 338.65135,113.4282 C 337.98327,110.81258 333.25768,110.30465 329.76442,110.2289 C 324.9934,110.12545 320.68496,113.10887 322.18091,117.33845 C 323.83055,122.00256 331.57725,121.28085 338.53286,119.35282 L 353.5814,119.23433 L 354.05537,113.54669 z "
       id="path2856"
       sodipodi:nodetypes="ccssccc" />
    <path
       sodipodi:nodetypes="ccssccc"
       id="path2858"
       d="M 352.041,139.85201 L 336.63698,139.73352 C 335.9689,137.1179 331.12482,137.55791 327.63156,137.48216 C 322.86054,137.37871 317.25353,140.23179 320.16654,143.64377 C 323.23809,147.24145 329.56288,147.58617 336.51849,145.65814 L 351.56703,145.53965 L 352.041,139.85201 z "
       style="fill:#ffffff;fill-opacity:1;fill-rule:evenodd;stroke:#000000;stroke-width:1px;stroke-linecap:butt;stroke-linejoin:miter;stroke-opacity:1" />
    <path
       style="fill:#ffffff;fill-opacity:1;fill-rule:evenodd;stroke:#000000;stroke-width:1px;stroke-linecap:butt;stroke-linejoin:miter;stroke-opacity:1"
       d="M 375.5025,113.07272 L 385.45586,113.19121 C 385.81555,117.55985 388.67359,121.45099 393.86882,120.89322 C 397.39237,120.51493 401.90017,116.13008 402.16329,109.99192 C 402.39905,104.49204 397.1943,99.789912 392.32842,99.801568 C 388.52769,99.810672 385.62956,102.6338 385.33737,107.38508 L 373.36964,106.91111 L 375.5025,113.07272 z "
       id="path2860"
       sodipodi:nodetypes="ccsssccc" />
    <path
       sodipodi:nodetypes="ccsssccc"
       id="path2862"
       d="M 379.17577,135.2308 L 390.19556,135.34929 C 390.55525,139.71793 393.41329,143.60907 398.60852,143.0513 C 402.13207,142.67301 406.63987,138.28816 406.90299,132.15 C 407.13875,126.65012 401.934,121.948 397.06812,121.95965 C 393.26739,121.96876 390.36926,124.79188 390.07707,129.54316 L 378.82029,129.54316 L 379.17577,135.2308 z "
       style="fill:#ffffff;fill-opacity:1;fill-rule:evenodd;stroke:#000000;stroke-width:1px;stroke-linecap:butt;stroke-linejoin:miter;stroke-opacity:1" />
    <path
       style="fill:#ffffff;fill-opacity:1;fill-rule:evenodd;stroke:#000000;stroke-width:1px;stroke-linecap:butt;stroke-linejoin:miter;stroke-opacity:1"
       d="M 359.27779,782.23355 C 357.72495,783.78639 359.06035,792.17525 366.65103,791.95281 C 373.92032,791.73978 375.33489,783.70292 373.68912,782.56869 L 359.27779,782.23355 z "
       id="path2864"
       sodipodi:nodetypes="cscc" />
    <path
       style="fill:#ffffff;fill-opacity:1;fill-rule:evenodd;stroke:#000000;stroke-width:1px;stroke-linecap:butt;stroke-linejoin:miter;stroke-opacity:1"
       d="M 363.6347,791.61767 L 364.305,886.46432 L 366.31588,980.64068 L 372.01338,980.64068 L 371.00794,861.32828 L 370.67279,790.27708 C 368.83747,791.74535 366.35958,791.92851 363.6347,791.61767 z "
       id="path2866"
       sodipodi:nodetypes="ccccccc" />
    <path
       style="fill:#ffffff;fill-opacity:1;fill-rule:evenodd;stroke:#000000;stroke-width:1px;stroke-linecap:butt;stroke-linejoin:miter;stroke-opacity:1"
       d="M 346.20705,782.56869 C 346.20705,782.56869 346.37462,786.50667 349.55852,787.5959 C 352.74242,788.68513 358.94264,786.92561 358.94264,786.92561 L 359.27779,782.23355 L 346.20705,782.56869 z "
       id="path2868"
       sodipodi:nodetypes="csccc" />
    <path
       style="opacity:1;fill:#ffffff;fill-opacity:1;fill-rule:evenodd;stroke:#000000;stroke-width:1px;stroke-linecap:butt;stroke-linejoin:miter;stroke-opacity:1"
       d="M 359.27779,567.73934 C 352.57485,564.08481 345.8719,565.05893 339.16896,564.72302 L 339.16896,575.11258 C 347.74122,574.56143 356.79696,574.38781 359.27779,572.09626 L 380.39206,572.09626 C 381.24347,576.8422 393.85505,574.02231 399.49545,574.77743 L 398.82516,565.39331 C 391.00506,564.27616 384.97241,564.94645 380.72721,567.4042 L 359.27779,567.73934 z "
       id="path2872"
       sodipodi:nodetypes="ccccccccc" />
    <path
       style="opacity:0.98000004;fill:#ffffff;fill-rule:evenodd;stroke:#000000;stroke-width:1px;stroke-linecap:butt;stroke-linejoin:miter;stroke-opacity:1;fill-opacity:1"
       d="M 360.61838,778.54693 L 377.37574,778.54693 C 378.30841,769.57328 377.89298,751.21176 377.0406,741.34559 C 376.7889,718.1787 374.95556,705.18676 381.3975,678.67306 C 386.58065,665.56182 388.00347,650.19439 388.77074,634.43363 C 377.73562,637.46532 365.82262,638.96071 351.23426,635.77422 C 352.82447,650.17368 352.85672,663.94996 358.6075,680.01365 C 365.48551,701.60646 364.1946,719.11482 362.29411,736.31838 C 359.99889,750.39456 360.29377,764.47075 360.61838,778.54693 z "
       id="path2870"
       sodipodi:nodetypes="ccccccccc" />
    <path
       style="fill:#ffffff;fill-opacity:1;fill-rule:evenodd;stroke:#000000;stroke-width:1px;stroke-linecap:butt;stroke-linejoin:miter;stroke-opacity:1"
       d="M 355.845,147.93873 L 348.47176,510.568 C 363.13036,505.42162 376.47911,506.82445 389.35972,510.568 L 375.28353,147.26844 L 355.845,147.93873 z "
       id="path2848"
       sodipodi:nodetypes="ccccc" />
    <path
       sodipodi:nodetypes="ccccc"
       id="path4842"
       d="M 355.96578,147.07211 L 348.59254,509.70138 C 363.25114,504.555 376.59989,505.95783 389.4805,509.70138 L 375.40431,146.40182 L 355.96578,147.07211 z "
       style="fill:#ffffff;fill-opacity:1;fill-rule:evenodd;stroke:#000000;stroke-width:1px;stroke-linecap:butt;stroke-linejoin:miter;stroke-opacity:1" />
    <path
       style="opacity:1;fill:#ffffff;fill-rule:evenodd;stroke:#000000;stroke-width:1px;stroke-linecap:butt;stroke-linejoin:miter;stroke-opacity:1;fill-opacity:1"
       d="M 360.21698,655.17557 L 357.37316,571.7569 L 357.37316,566.06927 L 360.21698,145.18417 L 360.21698,139.49653 L 360.21698,140.44447"
       id="path3848" />
    <path
       style="opacity:1;fill:none;fill-rule:evenodd;stroke:#000000;stroke-width:1px;stroke-linecap:butt;stroke-linejoin:miter;stroke-opacity:1;fill-opacity:1"
       d="M 367.80049,655.17557 L 367.80049,570.80896 L 367.80049,566.06927 L 362.11285,143.28829 L 363.06079,128.12126 L 363.06079,128.12126 L 363.06079,126.22538"
       id="path3850" />
    <path
       style="opacity:1;fill:none;fill-rule:evenodd;stroke:#000000;stroke-width:1px;stroke-linecap:butt;stroke-linejoin:miter;stroke-opacity:1;fill-opacity:1"
       d="M 375.85797,654.7016 L 378.22782,572.70484 L 378.22782,565.12133 L 369.69637,145.18417 L 367.80049,130.96508"
       id="path3852"
       sodipodi:nodetypes="ccccc" />
    <path
       style="opacity:1;fill:none;fill-rule:evenodd;stroke:#000000;stroke-width:1px;stroke-linecap:butt;stroke-linejoin:miter;stroke-opacity:1;fill-opacity:1"
       d="M 383.91546,655.17557 L 389.6031,573.65278 L 389.6031,564.17339 L 374.43606,142.34035"
       id="path3854"
       sodipodi:nodetypes="cccc" />
    <path
       style="opacity:0.98000004;fill:#ffffff;fill-rule:evenodd;stroke:#000000;stroke-width:1px;stroke-linecap:butt;stroke-linejoin:miter;stroke-opacity:1;fill-opacity:1"
       d="M 328.1091,533.55433 C 316.78179,528.5508 314.64139,550.97004 315.37351,574.10714 C 314.78226,607.71459 305.08013,610.08476 296.94041,609.96789 C 292.45612,609.9035 284.83674,606.18134 287.22114,598.23774 C 287.97045,595.74141 292.24782,592.99996 295.26468,596.22685 C 296.58463,597.63869 297.45234,600.69548 293.25379,602.9298 C 301.70053,612.31303 307.50518,599.86196 309.00571,593.88082 C 311.68276,580.3246 310.5373,565.67718 311.35174,551.31713 C 311.94005,540.94406 315.7183,530.6987 325.76307,529.86771 C 329.31164,529.57414 333.05176,531.60083 334.81205,536.23551 C 334.18808,539.66419 333.06511,542.26119 329.78484,541.26271 C 326.61179,539.5275 325.92461,537.07538 328.1091,533.55433 z "
       id="path3844"
       sodipodi:nodetypes="ccsssccssccc" />
    <path
       sodipodi:nodetypes="ccsssccssccc"
       id="path3846"
       d="M 409.09827,534.55977 C 420.42558,529.55624 422.56598,551.97548 421.83386,575.11258 C 422.42511,608.72003 432.12724,611.0902 440.26696,610.97333 C 444.75125,610.90894 452.37063,607.18678 449.98623,599.24318 C 449.23692,596.74685 444.95955,594.0054 441.94269,597.23229 C 440.62274,598.64413 439.75503,601.70092 443.95358,603.93524 C 435.50684,613.31847 429.70219,600.8674 428.20166,594.88626 C 425.52461,581.33004 426.67007,566.68262 425.85563,552.32257 C 425.26732,541.9495 421.48907,531.70414 411.4443,530.87315 C 407.89573,530.57958 404.15561,532.60627 402.39532,537.24095 C 403.01929,540.66963 404.14226,543.26663 407.42253,542.26815 C 410.59558,540.53294 411.28276,538.08082 409.09827,534.55977 z "
       style="opacity:1;fill:#ffffff;fill-rule:evenodd;stroke:#000000;stroke-width:1px;stroke-linecap:butt;stroke-linejoin:miter;stroke-opacity:1;fill-opacity:1" />
  </g>
</svg>
